# xmcd
#
# Track frame offsets: 
#        150
#        11971
#        25597
#        35632
#        55372
#        64791
#        77655
#        93998
#        107902
#        125711
#        138673
#        155708
#        163676
#        175566
#
# Disc length: 2469 seconds
#
# Revision: 0
# Processed by: cddbd v1.5.2PL0 Copyright (c) Steve Scherf et al.
# Submitted via: ExactAudioCopy v1.3
#
DISCID=be09a30e
DTITLE=Zelenáči - Silnice, řeky, tratě a ztezky
DYEAR=1976
DGENRE=Country
TTITLE0=Historie téhle káry
TTITLE1=Matčiny růže
TTITLE2=Černá a bílá noc
TTITLE3=Čekání
TTITLE4=Banjo má pět strun
TTITLE5=Vltavská marína
TTITLE6=Netoužím polustrech z křišťálu
TTITLE7=Poslední rallye
TTITLE8=Dívka s vlasem medovým
TTITLE9=Dálnice
TTITLE10=Táta můj mi říkal
TTITLE11=Boty po strýci
TTITLE12=Kdosi mne ruší
TTITLE13=Království za koně
EXTD=
EXTT0=
EXTT1=
EXTT2=
EXTT3=
EXTT4=
EXTT5=
EXTT6=
EXTT7=
EXTT8=
EXTT9=
EXTT10=
EXTT11=
EXTT12=
EXTT13=
PLAYORDER=
